<?xml version="1.0" standalone="yes"?>

<svg version="1.1" viewBox="0.0 0.0 597.8976377952756 593.5406824146982" fill="none" stroke="none" stroke-linecap="square" stroke-miterlimit="10" xmlns="http://www.w3.org/2000/svg" xmlns:xlink="http://www.w3.org/1999/xlink"><clipPath id="p.0"><path d="m0 0l597.89764 0l0 593.5407l-597.89764 0l0 -593.5407z" clip-rule="nonzero"></path></clipPath><g clip-path="url(#p.0)"><path fill="#000000" fill-opacity="0.0" d="m0 0l597.89764 0l0 593.5407l-597.89764 0z" fill-rule="nonzero"></path><path fill="#8e7cc3" d="m2.9632547 296.76904l0 0c0 -163.4676 132.51666 -295.98425 295.98425 -295.98425l0 0c78.49991 0 153.78467 31.183966 209.29248 86.69178c55.507812 55.50782 86.69177 130.79257 86.69177 209.29248l0 0c0 163.46756 -132.51666 295.98425 -295.98425 295.98425l0 0c-163.46759 0 -295.98425 -132.5167 -295.98425 -295.98425z" fill-rule="nonzero"></path><path fill="#f3f3f3" d="m140.09448 206.45407l0 0c0 -28.00563 22.703049 -50.708664 50.708664 -50.708664l0 0c13.448776 0 26.346725 5.342499 35.856445 14.852219c9.50972 9.50972 14.852219 22.40767 14.852219 35.856445l0 0c0 28.005615 -22.703033 50.70865 -50.708664 50.70865l0 0c-28.005615 0 -50.708664 -22.703033 -50.708664 -50.70865z" fill-rule="nonzero"></path><path fill="#434343" d="m169.25984 236.87927l0 0c0 -11.202255 9.645264 -20.283478 21.543304 -20.283478l0 0c5.7136383 0 11.193268 2.1370087 15.233429 5.9408875c4.040146 3.803894 6.3098755 8.963074 6.3098755 14.34259l0 0c0 11.20224 -9.645264 20.283447 -21.543304 20.283447l0 0c-11.898041 0 -21.543304 -9.081207 -21.543304 -20.283447z" fill-rule="nonzero"></path><path fill="#9fc5e8" fill-opacity="0.5654" d="m226.2998 242.67186c-18.025818 17.664291 -46.298126 19.383835 -66.33186 4.0343475z" fill-rule="nonzero"></path><path fill="#a64d79" fill-opacity="0.6654" d="m150.20735 445.0656l0 0c0 -23.796082 66.59323 -43.08661 148.74016 -43.08661c82.14691 0 148.74014 19.290527 148.74014 43.08661l0 0c-88.14847 -19.144226 -209.33182 -19.144226 -297.4803 0z" fill-rule="nonzero"></path><path fill="#f3f3f3" d="m356.37796 206.45407l0 0c0 -28.00563 22.703033 -50.708664 50.70865 -50.708664l0 0c13.4487915 0 26.34671 5.342499 35.856445 14.852219c9.509705 9.50972 14.852234 22.40767 14.852234 35.856445l0 0c0 28.005615 -22.703064 50.70865 -50.70868 50.70865l0 0c-28.005615 0 -50.70865 -22.703033 -50.70865 -50.70865z" fill-rule="nonzero"></path><path fill="#434343" d="m385.5433 236.87927l0 0c0 -11.202255 9.645264 -20.283478 21.543304 -20.283478l0 0c5.7136536 0 11.193268 2.1370087 15.233429 5.9408875c4.040161 3.803894 6.3098755 8.963074 6.3098755 14.34259l0 0c0 11.20224 -9.645264 20.283447 -21.543304 20.283447l0 0c-11.898041 0 -21.543304 -9.081207 -21.543304 -20.283447z" fill-rule="nonzero"></path><path fill="#9fc5e8" fill-opacity="0.5654" d="m436.4417 247.80568l0 0c-20.09259 14.260971 -47.528503 12.014969 -65.03424 -5.323929z" fill-rule="nonzero"></path></g></svg>

